<?xml version="1.0" encoding="UTF-8"?>
<!-- Generated by Pixelmator Pro 3.5.11 -->
<svg width="2000" height="1333" viewBox="0 0 2000 1333" xmlns="http://www.w3.org/2000/svg">
    <path id="Path" fill="#000000" fill-rule="evenodd" stroke="#000000" stroke-width="3"
        d="M 1278 645 L 1187 564 L 1000 461 L 786 403 L 697 343 L 589 255 L 550 248 L 457 238 L 451 248 L 377 127 L 327 118 L 292 158 L 296 222 L 317 239 L 363 201 L 394 213 L 437 268 L 412 304 L 409 328 L 417 368 L 402 398 L 397 411 L 397 421 L 401 431 L 412 422 L 429 423 L 446 442 L 462 466 L 458 491 L 448 585 L 463 666 L 497 762 L 556 875 L 646 954 L 736 1023 L 835 1044 L 877 1066 L 843 1134 L 791 1192 L 723 1204 L 711 1213 L 674 1214 L 661 1226 L 665 1235 L 716 1231 L 719 1239 L 743 1232 L 826 1228 L 848 1207 L 863 1166 L 951 1051 L 1062 1033 L 1084 1156 L 1018 1216 L 1057 1219 L 1096 1182 L 1106 1197 L 1096 1222 L 1104 1239 L 1119 1236 L 1127 1221 L 1137 1191 L 1127 1148 L 1135 1127 L 1165 1134 L 1173 1124 L 1190 1125 L 1174 1114 L 1123 1108 L 1096 1025 L 1237 951 L 1281 966 L 1383 961 L 1581 996 L 1724 1071 L 1663 1021 L 1703 1038 L 1684 1019 L 1742 1050 L 1746 1032 L 1431 834 L 1372 745 L 1390 736 L 1384 716 L 1354 690 L 1326 685 L 1308 656 L 1278 645 Z" />
</svg>